<mxfile host="app.diagrams.net" modified="2023-11-04T13:49:29.088Z" agent="Mozilla/5.0 (Windows NT 10.0; Win64; x64) AppleWebKit/537.36 (KHTML, like Gecko) Chrome/119.0.0.0 Safari/537.36" etag="IZK-0Pzvq5sridxcSNQa" version="22.0.8" type="device">
  <diagram name="Page-1" id="kGrPspKTIFpNGLlM7SJy">
    <mxGraphModel dx="1502" dy="577" grid="1" gridSize="10" guides="1" tooltips="1" connect="1" arrows="1" fold="1" page="1" pageScale="1" pageWidth="1600" pageHeight="1200" math="0" shadow="0">
      <root>
        <mxCell id="0" />
        <mxCell id="1" parent="0" />
        <mxCell id="sPvkKBUEQPrzSaoXL6Q--1" value="User" style="rounded=0;whiteSpace=wrap;html=1;" parent="1" vertex="1">
          <mxGeometry x="300" y="240" width="120" height="60" as="geometry" />
        </mxCell>
        <mxCell id="sPvkKBUEQPrzSaoXL6Q--7" value="about_me" style="ellipse;whiteSpace=wrap;html=1;" parent="1" vertex="1">
          <mxGeometry x="300" y="80" width="120" height="80" as="geometry" />
        </mxCell>
        <mxCell id="sPvkKBUEQPrzSaoXL6Q--8" value="password" style="ellipse;whiteSpace=wrap;html=1;" parent="1" vertex="1">
          <mxGeometry x="480" y="280" width="120" height="80" as="geometry" />
        </mxCell>
        <mxCell id="sPvkKBUEQPrzSaoXL6Q--9" value="email(username)" style="ellipse;whiteSpace=wrap;html=1;movable=0;resizable=0;rotatable=0;deletable=0;editable=0;locked=1;connectable=0;" parent="1" vertex="1">
          <mxGeometry x="480" y="170" width="120" height="80" as="geometry" />
        </mxCell>
        <mxCell id="sPvkKBUEQPrzSaoXL6Q--10" value="name" style="ellipse;whiteSpace=wrap;html=1;" parent="1" vertex="1">
          <mxGeometry x="120" y="278" width="120" height="80" as="geometry" />
        </mxCell>
        <mxCell id="sPvkKBUEQPrzSaoXL6Q--11" value="user_id" style="ellipse;whiteSpace=wrap;html=1;fillColor=#dae8fc;strokeColor=#6c8ebf;" parent="1" vertex="1">
          <mxGeometry x="120" y="150" width="120" height="80" as="geometry" />
        </mxCell>
        <mxCell id="sPvkKBUEQPrzSaoXL6Q--12" value="" style="endArrow=none;html=1;rounded=0;exitX=1;exitY=0.5;exitDx=0;exitDy=0;entryX=0;entryY=0;entryDx=0;entryDy=0;" parent="1" source="sPvkKBUEQPrzSaoXL6Q--11" target="sPvkKBUEQPrzSaoXL6Q--1" edge="1">
          <mxGeometry width="50" height="50" relative="1" as="geometry">
            <mxPoint x="360" y="330" as="sourcePoint" />
            <mxPoint x="410" y="280" as="targetPoint" />
          </mxGeometry>
        </mxCell>
        <mxCell id="sPvkKBUEQPrzSaoXL6Q--13" value="" style="endArrow=none;html=1;rounded=0;entryX=0.5;entryY=1;entryDx=0;entryDy=0;" parent="1" source="sPvkKBUEQPrzSaoXL6Q--1" target="sPvkKBUEQPrzSaoXL6Q--7" edge="1">
          <mxGeometry width="50" height="50" relative="1" as="geometry">
            <mxPoint x="360" y="330" as="sourcePoint" />
            <mxPoint x="410" y="280" as="targetPoint" />
          </mxGeometry>
        </mxCell>
        <mxCell id="sPvkKBUEQPrzSaoXL6Q--14" value="" style="endArrow=none;html=1;rounded=0;entryX=0;entryY=0.5;entryDx=0;entryDy=0;exitX=1.003;exitY=0.117;exitDx=0;exitDy=0;exitPerimeter=0;" parent="1" source="sPvkKBUEQPrzSaoXL6Q--1" target="sPvkKBUEQPrzSaoXL6Q--9" edge="1">
          <mxGeometry width="50" height="50" relative="1" as="geometry">
            <mxPoint x="360" y="330" as="sourcePoint" />
            <mxPoint x="470" y="210" as="targetPoint" />
          </mxGeometry>
        </mxCell>
        <mxCell id="sPvkKBUEQPrzSaoXL6Q--15" value="" style="endArrow=none;html=1;rounded=0;exitX=0;exitY=0.5;exitDx=0;exitDy=0;entryX=1;entryY=1;entryDx=0;entryDy=0;" parent="1" source="sPvkKBUEQPrzSaoXL6Q--8" target="sPvkKBUEQPrzSaoXL6Q--1" edge="1">
          <mxGeometry width="50" height="50" relative="1" as="geometry">
            <mxPoint x="360" y="330" as="sourcePoint" />
            <mxPoint x="410" y="280" as="targetPoint" />
          </mxGeometry>
        </mxCell>
        <mxCell id="sPvkKBUEQPrzSaoXL6Q--16" value="" style="endArrow=none;html=1;rounded=0;exitX=1;exitY=0.5;exitDx=0;exitDy=0;entryX=0;entryY=1;entryDx=0;entryDy=0;" parent="1" source="sPvkKBUEQPrzSaoXL6Q--10" target="sPvkKBUEQPrzSaoXL6Q--1" edge="1">
          <mxGeometry width="50" height="50" relative="1" as="geometry">
            <mxPoint x="360" y="330" as="sourcePoint" />
            <mxPoint x="410" y="280" as="targetPoint" />
          </mxGeometry>
        </mxCell>
        <mxCell id="sPvkKBUEQPrzSaoXL6Q--17" value="Post" style="rounded=0;whiteSpace=wrap;html=1;" parent="1" vertex="1">
          <mxGeometry x="300" y="490" width="120" height="60" as="geometry" />
        </mxCell>
        <mxCell id="sPvkKBUEQPrzSaoXL6Q--18" value="&lt;font style=&quot;font-size: 3px;&quot;&gt;1 user can have many posts&lt;/font&gt;" style="rhombus;whiteSpace=wrap;html=1;" parent="1" vertex="1">
          <mxGeometry x="330" y="360" width="60" height="60" as="geometry" />
        </mxCell>
        <mxCell id="sPvkKBUEQPrzSaoXL6Q--20" value="" style="endArrow=none;html=1;rounded=0;entryX=0.5;entryY=1;entryDx=0;entryDy=0;" parent="1" target="sPvkKBUEQPrzSaoXL6Q--18" edge="1">
          <mxGeometry width="50" height="50" relative="1" as="geometry">
            <mxPoint x="360" y="490" as="sourcePoint" />
            <mxPoint x="410" y="500" as="targetPoint" />
          </mxGeometry>
        </mxCell>
        <mxCell id="sPvkKBUEQPrzSaoXL6Q--21" value="" style="endArrow=none;html=1;rounded=0;entryX=0.5;entryY=0;entryDx=0;entryDy=0;" parent="1" target="sPvkKBUEQPrzSaoXL6Q--18" edge="1">
          <mxGeometry width="50" height="50" relative="1" as="geometry">
            <mxPoint x="360" y="300" as="sourcePoint" />
            <mxPoint x="410" y="500" as="targetPoint" />
          </mxGeometry>
        </mxCell>
        <mxCell id="sPvkKBUEQPrzSaoXL6Q--22" value="1" style="text;html=1;align=center;verticalAlign=middle;resizable=0;points=[];autosize=1;strokeColor=none;fillColor=none;" parent="1" vertex="1">
          <mxGeometry x="355" y="318" width="30" height="30" as="geometry" />
        </mxCell>
        <mxCell id="sPvkKBUEQPrzSaoXL6Q--23" value="&amp;nbsp;n" style="text;html=1;align=center;verticalAlign=middle;resizable=0;points=[];autosize=1;strokeColor=none;fillColor=none;" parent="1" vertex="1">
          <mxGeometry x="355" y="438" width="30" height="30" as="geometry" />
        </mxCell>
        <mxCell id="sPvkKBUEQPrzSaoXL6Q--24" value="&lt;b&gt;&lt;i&gt;user_id&lt;/i&gt;&lt;/b&gt;" style="ellipse;whiteSpace=wrap;html=1;fillColor=#dae8fc;strokeColor=#6c8ebf;" parent="1" vertex="1">
          <mxGeometry x="300" y="610" width="120" height="80" as="geometry" />
        </mxCell>
        <mxCell id="sPvkKBUEQPrzSaoXL6Q--25" value="content" style="ellipse;whiteSpace=wrap;html=1;" parent="1" vertex="1">
          <mxGeometry x="480" y="560" width="120" height="80" as="geometry" />
        </mxCell>
        <mxCell id="sPvkKBUEQPrzSaoXL6Q--26" value="title" style="ellipse;whiteSpace=wrap;html=1;" parent="1" vertex="1">
          <mxGeometry x="480" y="410" width="120" height="80" as="geometry" />
        </mxCell>
        <mxCell id="sPvkKBUEQPrzSaoXL6Q--27" value="image" style="ellipse;whiteSpace=wrap;html=1;" parent="1" vertex="1">
          <mxGeometry x="120" y="560" width="120" height="80" as="geometry" />
        </mxCell>
        <mxCell id="sPvkKBUEQPrzSaoXL6Q--28" value="post_id" style="ellipse;whiteSpace=wrap;html=1;fillColor=#ffe6cc;strokeColor=#d79b00;" parent="1" vertex="1">
          <mxGeometry x="120" y="410" width="120" height="80" as="geometry" />
        </mxCell>
        <mxCell id="sPvkKBUEQPrzSaoXL6Q--29" value="" style="endArrow=none;html=1;rounded=0;exitX=0.5;exitY=0;exitDx=0;exitDy=0;entryX=0.5;entryY=1;entryDx=0;entryDy=0;" parent="1" source="sPvkKBUEQPrzSaoXL6Q--24" target="sPvkKBUEQPrzSaoXL6Q--17" edge="1">
          <mxGeometry width="50" height="50" relative="1" as="geometry">
            <mxPoint x="360" y="570" as="sourcePoint" />
            <mxPoint x="410" y="520" as="targetPoint" />
          </mxGeometry>
        </mxCell>
        <mxCell id="sPvkKBUEQPrzSaoXL6Q--30" value="" style="endArrow=none;html=1;rounded=0;entryX=0;entryY=0.5;entryDx=0;entryDy=0;exitX=1;exitY=1;exitDx=0;exitDy=0;" parent="1" source="sPvkKBUEQPrzSaoXL6Q--17" target="sPvkKBUEQPrzSaoXL6Q--25" edge="1">
          <mxGeometry width="50" height="50" relative="1" as="geometry">
            <mxPoint x="360" y="570" as="sourcePoint" />
            <mxPoint x="410" y="520" as="targetPoint" />
          </mxGeometry>
        </mxCell>
        <mxCell id="sPvkKBUEQPrzSaoXL6Q--31" value="" style="endArrow=none;html=1;rounded=0;exitX=1;exitY=0.5;exitDx=0;exitDy=0;entryX=0;entryY=1;entryDx=0;entryDy=0;" parent="1" source="sPvkKBUEQPrzSaoXL6Q--27" target="sPvkKBUEQPrzSaoXL6Q--17" edge="1">
          <mxGeometry width="50" height="50" relative="1" as="geometry">
            <mxPoint x="360" y="570" as="sourcePoint" />
            <mxPoint x="410" y="520" as="targetPoint" />
          </mxGeometry>
        </mxCell>
        <mxCell id="sPvkKBUEQPrzSaoXL6Q--32" value="" style="endArrow=none;html=1;rounded=0;exitX=1;exitY=0.5;exitDx=0;exitDy=0;entryX=0;entryY=0;entryDx=0;entryDy=0;" parent="1" source="sPvkKBUEQPrzSaoXL6Q--28" target="sPvkKBUEQPrzSaoXL6Q--17" edge="1">
          <mxGeometry width="50" height="50" relative="1" as="geometry">
            <mxPoint x="360" y="570" as="sourcePoint" />
            <mxPoint x="410" y="520" as="targetPoint" />
          </mxGeometry>
        </mxCell>
        <mxCell id="sPvkKBUEQPrzSaoXL6Q--33" value="" style="endArrow=none;html=1;rounded=0;entryX=0;entryY=0.5;entryDx=0;entryDy=0;exitX=1;exitY=0;exitDx=0;exitDy=0;" parent="1" source="sPvkKBUEQPrzSaoXL6Q--17" target="sPvkKBUEQPrzSaoXL6Q--26" edge="1">
          <mxGeometry width="50" height="50" relative="1" as="geometry">
            <mxPoint x="360" y="570" as="sourcePoint" />
            <mxPoint x="410" y="520" as="targetPoint" />
          </mxGeometry>
        </mxCell>
        <mxCell id="sPvkKBUEQPrzSaoXL6Q--34" value="Comment" style="rounded=0;whiteSpace=wrap;html=1;" parent="1" vertex="1">
          <mxGeometry x="820" y="240" width="120" height="60" as="geometry" />
        </mxCell>
        <mxCell id="sPvkKBUEQPrzSaoXL6Q--35" value="&lt;b&gt;&lt;i&gt;user_id&lt;/i&gt;&lt;/b&gt;" style="ellipse;whiteSpace=wrap;html=1;fillColor=#dae8fc;strokeColor=#6c8ebf;" parent="1" vertex="1">
          <mxGeometry x="680" y="160" width="120" height="80" as="geometry" />
        </mxCell>
        <mxCell id="sPvkKBUEQPrzSaoXL6Q--36" value="&lt;b&gt;&lt;i&gt;post_id&lt;/i&gt;&lt;/b&gt;" style="ellipse;whiteSpace=wrap;html=1;fillColor=#ffe6cc;strokeColor=#d79b00;" parent="1" vertex="1">
          <mxGeometry x="960" y="310" width="120" height="80" as="geometry" />
        </mxCell>
        <mxCell id="sPvkKBUEQPrzSaoXL6Q--37" value="comment_content" style="ellipse;whiteSpace=wrap;html=1;" parent="1" vertex="1">
          <mxGeometry x="960" y="160" width="120" height="80" as="geometry" />
        </mxCell>
        <mxCell id="sPvkKBUEQPrzSaoXL6Q--38" value="comment_id" style="ellipse;whiteSpace=wrap;html=1;" parent="1" vertex="1">
          <mxGeometry x="820" y="120" width="120" height="80" as="geometry" />
        </mxCell>
        <mxCell id="sPvkKBUEQPrzSaoXL6Q--39" value="" style="endArrow=none;html=1;rounded=0;entryX=1;entryY=1;entryDx=0;entryDy=0;exitX=0.5;exitY=0;exitDx=0;exitDy=0;" parent="1" source="sPvkKBUEQPrzSaoXL6Q--36" target="sPvkKBUEQPrzSaoXL6Q--34" edge="1">
          <mxGeometry width="50" height="50" relative="1" as="geometry">
            <mxPoint x="750" y="350" as="sourcePoint" />
            <mxPoint x="800" y="300" as="targetPoint" />
          </mxGeometry>
        </mxCell>
        <mxCell id="sPvkKBUEQPrzSaoXL6Q--40" value="" style="endArrow=none;html=1;rounded=0;entryX=0;entryY=0.5;entryDx=0;entryDy=0;exitX=1;exitY=0;exitDx=0;exitDy=0;" parent="1" source="sPvkKBUEQPrzSaoXL6Q--34" target="sPvkKBUEQPrzSaoXL6Q--37" edge="1">
          <mxGeometry width="50" height="50" relative="1" as="geometry">
            <mxPoint x="750" y="350" as="sourcePoint" />
            <mxPoint x="800" y="300" as="targetPoint" />
          </mxGeometry>
        </mxCell>
        <mxCell id="sPvkKBUEQPrzSaoXL6Q--41" value="" style="endArrow=none;html=1;rounded=0;entryX=0.5;entryY=1;entryDx=0;entryDy=0;exitX=0.5;exitY=0;exitDx=0;exitDy=0;" parent="1" source="sPvkKBUEQPrzSaoXL6Q--34" target="sPvkKBUEQPrzSaoXL6Q--38" edge="1">
          <mxGeometry width="50" height="50" relative="1" as="geometry">
            <mxPoint x="750" y="350" as="sourcePoint" />
            <mxPoint x="800" y="300" as="targetPoint" />
          </mxGeometry>
        </mxCell>
        <mxCell id="sPvkKBUEQPrzSaoXL6Q--42" value="" style="endArrow=none;html=1;rounded=0;entryX=1;entryY=0.5;entryDx=0;entryDy=0;exitX=0;exitY=0;exitDx=0;exitDy=0;" parent="1" source="sPvkKBUEQPrzSaoXL6Q--34" target="sPvkKBUEQPrzSaoXL6Q--35" edge="1">
          <mxGeometry width="50" height="50" relative="1" as="geometry">
            <mxPoint x="750" y="350" as="sourcePoint" />
            <mxPoint x="800" y="300" as="targetPoint" />
          </mxGeometry>
        </mxCell>
        <mxCell id="sPvkKBUEQPrzSaoXL6Q--43" value="&lt;font style=&quot;font-size: 5px;&quot;&gt;post can have multiple comments&lt;/font&gt;" style="rhombus;whiteSpace=wrap;html=1;" parent="1" vertex="1">
          <mxGeometry x="750" y="430" width="80" height="80" as="geometry" />
        </mxCell>
        <mxCell id="sPvkKBUEQPrzSaoXL6Q--44" value="&lt;font style=&quot;font-size: 6px;&quot;&gt;user can do multiple comments&lt;/font&gt;" style="rhombus;whiteSpace=wrap;html=1;" parent="1" vertex="1">
          <mxGeometry x="690" y="318" width="80" height="80" as="geometry" />
        </mxCell>
        <mxCell id="sPvkKBUEQPrzSaoXL6Q--47" value="" style="endArrow=none;html=1;rounded=0;exitX=1;exitY=0.5;exitDx=0;exitDy=0;entryX=0;entryY=0.5;entryDx=0;entryDy=0;" parent="1" source="sPvkKBUEQPrzSaoXL6Q--17" target="sPvkKBUEQPrzSaoXL6Q--43" edge="1">
          <mxGeometry width="50" height="50" relative="1" as="geometry">
            <mxPoint x="750" y="490" as="sourcePoint" />
            <mxPoint x="800" y="440" as="targetPoint" />
          </mxGeometry>
        </mxCell>
        <mxCell id="sPvkKBUEQPrzSaoXL6Q--48" value="" style="endArrow=none;html=1;rounded=0;entryX=1;entryY=0;entryDx=0;entryDy=0;exitX=0.5;exitY=1;exitDx=0;exitDy=0;" parent="1" source="sPvkKBUEQPrzSaoXL6Q--34" target="sPvkKBUEQPrzSaoXL6Q--43" edge="1">
          <mxGeometry width="50" height="50" relative="1" as="geometry">
            <mxPoint x="880" y="310" as="sourcePoint" />
            <mxPoint x="800" y="440" as="targetPoint" />
          </mxGeometry>
        </mxCell>
        <mxCell id="sPvkKBUEQPrzSaoXL6Q--49" value="" style="endArrow=none;html=1;rounded=0;entryX=0;entryY=1;entryDx=0;entryDy=0;exitX=1;exitY=0;exitDx=0;exitDy=0;" parent="1" source="sPvkKBUEQPrzSaoXL6Q--44" target="sPvkKBUEQPrzSaoXL6Q--34" edge="1">
          <mxGeometry width="50" height="50" relative="1" as="geometry">
            <mxPoint x="750" y="440" as="sourcePoint" />
            <mxPoint x="800" y="390" as="targetPoint" />
          </mxGeometry>
        </mxCell>
        <mxCell id="sPvkKBUEQPrzSaoXL6Q--50" value="" style="curved=1;endArrow=classic;html=1;rounded=0;exitX=0.81;exitY=1.017;exitDx=0;exitDy=0;exitPerimeter=0;" parent="1" source="sPvkKBUEQPrzSaoXL6Q--1" edge="1">
          <mxGeometry width="50" height="50" relative="1" as="geometry">
            <mxPoint x="300" y="288" as="sourcePoint" />
            <mxPoint x="690" y="360" as="targetPoint" />
            <Array as="points">
              <mxPoint x="380" y="368" />
              <mxPoint x="540" y="380" />
              <mxPoint x="660" y="400" />
              <mxPoint x="660" y="378" />
            </Array>
          </mxGeometry>
        </mxCell>
        <mxCell id="sPvkKBUEQPrzSaoXL6Q--51" value="Category" style="rounded=0;whiteSpace=wrap;html=1;" parent="1" vertex="1">
          <mxGeometry x="880" y="670" width="120" height="60" as="geometry" />
        </mxCell>
        <mxCell id="sPvkKBUEQPrzSaoXL6Q--52" value="cat_name" style="ellipse;whiteSpace=wrap;html=1;" parent="1" vertex="1">
          <mxGeometry x="880" y="760" width="120" height="80" as="geometry" />
        </mxCell>
        <mxCell id="sPvkKBUEQPrzSaoXL6Q--53" value="cat_id" style="ellipse;whiteSpace=wrap;html=1;fillColor=#f8cecc;strokeColor=#b85450;" parent="1" vertex="1">
          <mxGeometry x="880" y="560" width="120" height="80" as="geometry" />
        </mxCell>
        <mxCell id="sPvkKBUEQPrzSaoXL6Q--54" value="&lt;b&gt;&lt;i&gt;cat_id&lt;/i&gt;&lt;/b&gt;" style="ellipse;whiteSpace=wrap;html=1;fillColor=#f8cecc;strokeColor=#b85450;" parent="1" vertex="1">
          <mxGeometry x="120" y="670" width="120" height="80" as="geometry" />
        </mxCell>
        <mxCell id="sPvkKBUEQPrzSaoXL6Q--55" value="" style="endArrow=none;html=1;rounded=0;exitX=1;exitY=0;exitDx=0;exitDy=0;entryX=0.25;entryY=1;entryDx=0;entryDy=0;" parent="1" source="sPvkKBUEQPrzSaoXL6Q--54" target="sPvkKBUEQPrzSaoXL6Q--17" edge="1">
          <mxGeometry width="50" height="50" relative="1" as="geometry">
            <mxPoint x="630" y="670" as="sourcePoint" />
            <mxPoint x="680" y="620" as="targetPoint" />
          </mxGeometry>
        </mxCell>
        <mxCell id="sPvkKBUEQPrzSaoXL6Q--56" value="&lt;font style=&quot;font-size: 5px;&quot;&gt;single category can have multiple posts&lt;/font&gt;" style="rhombus;whiteSpace=wrap;html=1;" parent="1" vertex="1">
          <mxGeometry x="690" y="670" width="80" height="80" as="geometry" />
        </mxCell>
        <mxCell id="sPvkKBUEQPrzSaoXL6Q--57" value="" style="curved=1;endArrow=classic;html=1;rounded=0;exitX=0.75;exitY=1;exitDx=0;exitDy=0;entryX=0;entryY=0.5;entryDx=0;entryDy=0;" parent="1" source="sPvkKBUEQPrzSaoXL6Q--17" target="sPvkKBUEQPrzSaoXL6Q--56" edge="1">
          <mxGeometry width="50" height="50" relative="1" as="geometry">
            <mxPoint x="550" y="725" as="sourcePoint" />
            <mxPoint x="600" y="675" as="targetPoint" />
            <Array as="points">
              <mxPoint x="510" y="660" />
              <mxPoint x="570" y="690" />
            </Array>
          </mxGeometry>
        </mxCell>
        <mxCell id="sPvkKBUEQPrzSaoXL6Q--58" value="" style="endArrow=none;html=1;rounded=0;entryX=0;entryY=0.5;entryDx=0;entryDy=0;exitX=1;exitY=0.5;exitDx=0;exitDy=0;" parent="1" source="sPvkKBUEQPrzSaoXL6Q--56" target="sPvkKBUEQPrzSaoXL6Q--51" edge="1">
          <mxGeometry width="50" height="50" relative="1" as="geometry">
            <mxPoint x="660" y="660" as="sourcePoint" />
            <mxPoint x="710" y="610" as="targetPoint" />
          </mxGeometry>
        </mxCell>
        <mxCell id="sPvkKBUEQPrzSaoXL6Q--59" value="1" style="text;html=1;align=center;verticalAlign=middle;resizable=0;points=[];autosize=1;strokeColor=none;fillColor=none;" parent="1" vertex="1">
          <mxGeometry x="805" y="668" width="30" height="30" as="geometry" />
        </mxCell>
        <mxCell id="sPvkKBUEQPrzSaoXL6Q--60" value="n" style="text;html=1;align=center;verticalAlign=middle;resizable=0;points=[];autosize=1;strokeColor=none;fillColor=none;" parent="1" vertex="1">
          <mxGeometry x="555" y="658" width="30" height="30" as="geometry" />
        </mxCell>
        <mxCell id="sPvkKBUEQPrzSaoXL6Q--61" value="1" style="text;html=1;align=center;verticalAlign=middle;resizable=0;points=[];autosize=1;strokeColor=none;fillColor=none;" parent="1" vertex="1">
          <mxGeometry x="635" y="458" width="30" height="30" as="geometry" />
        </mxCell>
        <mxCell id="sPvkKBUEQPrzSaoXL6Q--62" value="n" style="text;html=1;align=center;verticalAlign=middle;resizable=0;points=[];autosize=1;strokeColor=none;fillColor=none;" parent="1" vertex="1">
          <mxGeometry x="835" y="368" width="30" height="30" as="geometry" />
        </mxCell>
        <mxCell id="sPvkKBUEQPrzSaoXL6Q--63" value="1" style="text;html=1;align=center;verticalAlign=middle;resizable=0;points=[];autosize=1;strokeColor=none;fillColor=none;" parent="1" vertex="1">
          <mxGeometry x="585" y="368" width="30" height="30" as="geometry" />
        </mxCell>
        <mxCell id="sPvkKBUEQPrzSaoXL6Q--64" value="n" style="text;html=1;align=center;verticalAlign=middle;resizable=0;points=[];autosize=1;strokeColor=none;fillColor=none;" parent="1" vertex="1">
          <mxGeometry x="765" y="288" width="30" height="30" as="geometry" />
        </mxCell>
        <mxCell id="sPvkKBUEQPrzSaoXL6Q--65" value="" style="endArrow=none;html=1;rounded=0;exitX=0.5;exitY=0;exitDx=0;exitDy=0;entryX=0.5;entryY=1;entryDx=0;entryDy=0;" parent="1" source="sPvkKBUEQPrzSaoXL6Q--52" target="sPvkKBUEQPrzSaoXL6Q--51" edge="1">
          <mxGeometry width="50" height="50" relative="1" as="geometry">
            <mxPoint x="700" y="520" as="sourcePoint" />
            <mxPoint x="750" y="470" as="targetPoint" />
          </mxGeometry>
        </mxCell>
        <mxCell id="sPvkKBUEQPrzSaoXL6Q--66" value="" style="endArrow=none;html=1;rounded=0;entryX=0.5;entryY=1;entryDx=0;entryDy=0;exitX=0.5;exitY=0;exitDx=0;exitDy=0;" parent="1" source="sPvkKBUEQPrzSaoXL6Q--51" target="sPvkKBUEQPrzSaoXL6Q--53" edge="1">
          <mxGeometry width="50" height="50" relative="1" as="geometry">
            <mxPoint x="700" y="520" as="sourcePoint" />
            <mxPoint x="750" y="470" as="targetPoint" />
          </mxGeometry>
        </mxCell>
        <mxCell id="sPvkKBUEQPrzSaoXL6Q--67" value="Role&lt;br&gt;" style="rounded=0;whiteSpace=wrap;html=1;" parent="1" vertex="1">
          <mxGeometry x="1120" y="490" width="120" height="60" as="geometry" />
        </mxCell>
        <mxCell id="sPvkKBUEQPrzSaoXL6Q--68" value="&lt;b&gt;&lt;i&gt;role_id&lt;/i&gt;&lt;/b&gt;" style="ellipse;whiteSpace=wrap;html=1;fillColor=#d5e8d4;strokeColor=#82b366;" parent="1" vertex="1">
          <mxGeometry x="480" width="120" height="80" as="geometry" />
        </mxCell>
        <mxCell id="sPvkKBUEQPrzSaoXL6Q--69" value="role_name" style="ellipse;whiteSpace=wrap;html=1;" parent="1" vertex="1">
          <mxGeometry x="1120" y="600" width="120" height="80" as="geometry" />
        </mxCell>
        <mxCell id="sPvkKBUEQPrzSaoXL6Q--70" value="&lt;b&gt;&lt;i&gt;role_id&lt;/i&gt;&lt;/b&gt;" style="ellipse;whiteSpace=wrap;html=1;fillColor=#d5e8d4;strokeColor=#82b366;" parent="1" vertex="1">
          <mxGeometry x="1120" y="358" width="120" height="80" as="geometry" />
        </mxCell>
        <mxCell id="sPvkKBUEQPrzSaoXL6Q--71" value="" style="endArrow=none;html=1;rounded=0;exitX=0.75;exitY=0;exitDx=0;exitDy=0;entryX=0;entryY=1;entryDx=0;entryDy=0;movable=0;resizable=0;rotatable=0;deletable=0;editable=0;locked=1;connectable=0;" parent="1" source="sPvkKBUEQPrzSaoXL6Q--1" target="sPvkKBUEQPrzSaoXL6Q--68" edge="1">
          <mxGeometry width="50" height="50" relative="1" as="geometry">
            <mxPoint x="820" y="370" as="sourcePoint" />
            <mxPoint x="870" y="320" as="targetPoint" />
          </mxGeometry>
        </mxCell>
        <mxCell id="sPvkKBUEQPrzSaoXL6Q--72" value="" style="endArrow=none;html=1;rounded=0;exitX=0.5;exitY=0;exitDx=0;exitDy=0;entryX=0.5;entryY=1;entryDx=0;entryDy=0;" parent="1" source="sPvkKBUEQPrzSaoXL6Q--69" target="sPvkKBUEQPrzSaoXL6Q--67" edge="1">
          <mxGeometry width="50" height="50" relative="1" as="geometry">
            <mxPoint x="820" y="370" as="sourcePoint" />
            <mxPoint x="870" y="320" as="targetPoint" />
          </mxGeometry>
        </mxCell>
        <mxCell id="sPvkKBUEQPrzSaoXL6Q--73" value="" style="endArrow=none;html=1;rounded=0;entryX=0.5;entryY=0;entryDx=0;entryDy=0;exitX=0.5;exitY=1;exitDx=0;exitDy=0;" parent="1" source="sPvkKBUEQPrzSaoXL6Q--70" target="sPvkKBUEQPrzSaoXL6Q--67" edge="1">
          <mxGeometry width="50" height="50" relative="1" as="geometry">
            <mxPoint x="820" y="370" as="sourcePoint" />
            <mxPoint x="870" y="320" as="targetPoint" />
          </mxGeometry>
        </mxCell>
        <mxCell id="sPvkKBUEQPrzSaoXL6Q--74" value="&lt;font style=&quot;font-size: 5px;&quot;&gt;many users can have many roles&lt;/font&gt;" style="rhombus;whiteSpace=wrap;html=1;" parent="1" vertex="1">
          <mxGeometry x="1000" width="80" height="80" as="geometry" />
        </mxCell>
        <mxCell id="sPvkKBUEQPrzSaoXL6Q--75" value="" style="curved=1;endArrow=classic;html=1;rounded=0;entryX=0;entryY=0.5;entryDx=0;entryDy=0;exitX=0.89;exitY=0.001;exitDx=0;exitDy=0;exitPerimeter=0;" parent="1" source="sPvkKBUEQPrzSaoXL6Q--1" target="sPvkKBUEQPrzSaoXL6Q--74" edge="1">
          <mxGeometry width="50" height="50" relative="1" as="geometry">
            <mxPoint x="665" y="90" as="sourcePoint" />
            <mxPoint x="715" y="40" as="targetPoint" />
            <Array as="points">
              <mxPoint x="500" y="130" />
              <mxPoint x="570" y="100" />
              <mxPoint x="640" y="50" />
              <mxPoint x="665" y="40" />
            </Array>
          </mxGeometry>
        </mxCell>
        <mxCell id="sPvkKBUEQPrzSaoXL6Q--77" value="" style="curved=1;endArrow=classic;html=1;rounded=0;exitX=1;exitY=0.5;exitDx=0;exitDy=0;entryX=0;entryY=0.5;entryDx=0;entryDy=0;" parent="1" source="sPvkKBUEQPrzSaoXL6Q--74" target="sPvkKBUEQPrzSaoXL6Q--67" edge="1">
          <mxGeometry width="50" height="50" relative="1" as="geometry">
            <mxPoint x="1050" y="560" as="sourcePoint" />
            <mxPoint x="1100" y="510" as="targetPoint" />
            <Array as="points">
              <mxPoint x="1100" y="560" />
              <mxPoint x="1050" y="510" />
            </Array>
          </mxGeometry>
        </mxCell>
      </root>
    </mxGraphModel>
  </diagram>
</mxfile>
